<?xml version="1.0" encoding="utf-8"?>
<!-- Generator: Adobe Illustrator 16.0.0, SVG Export Plug-In . SVG Version: 6.00 Build 0)  -->
<!DOCTYPE svg PUBLIC "-//W3C//DTD SVG 1.1 Tiny//EN" "http://www.w3.org/Graphics/SVG/1.1/DTD/svg11-tiny.dtd">
<svg version="1.1" baseProfile="tiny" xmlns="http://www.w3.org/2000/svg" xmlns:xlink="http://www.w3.org/1999/xlink" x="0px"
	 y="0px" width="1116.499px" height="729.751px" viewBox="0 0 1116.499 729.751" xml:space="preserve">
<g id="Layer_5">
</g>
<g id="Layer_3">
	<path fill="#FFFFFF" d="M971.432,500.668H713.066c19.979,15.792,42.918,28.005,67.849,35.669v17.664h121.667v-17.367
		C927.898,528.991,951.186,516.671,971.432,500.668z"/>
	<path fill="#FFFFFF" d="M820.128,460.251c4.814,7.067,12.925,11.709,22.121,11.709s17.307-4.642,22.121-11.709H820.128z"/>
	<polygon fill="#FFFFFF" points="845.529,441.376 839.124,441.376 836.124,460.251 848.529,460.251 	"/>
	<path fill="#FFFFFF" d="M860.613,566.417c-3.973-5.902-10.715-9.786-18.364-9.786c-7.505,0-14.132,3.74-18.132,9.455l0,0
		l-47.118,12.666v32.25h55.25v5.25h48l5.75-5.25h20.5v-32.25L860.613,566.417z"/>
	
		<rect x="718.249" y="550.002" transform="matrix(0.8028 0.5963 -0.5963 0.8028 481.578 -333.4637)" fill="#FFFFFF" width="53.249" height="22.5"/>
	<rect x="550.889" y="584.251" fill="#FFFFFF" width="109.36" height="32"/>
	<path fill="#FFFFFF" d="M1112.749,592.532v-9.53v-6.5v-3.75h-22.25v-26.25v-15h-9.5h-19.25v15h19.25v30h-2.875v-22.436
		c-17.88,0-32.375,14.495-32.375,32.375h8.75v16.891h23.625v-16.891v-3.439h2.875h9.5v5.402c-5.081,3.001-8.5,8.519-8.5,14.848
		c0,9.527,7.723,17.25,17.25,17.25s17.25-7.723,17.25-17.25C1116.499,599.197,1115.091,595.476,1112.749,592.532z"/>
	<rect x="991.749" y="558.251" fill="#FFFFFF" width="26" height="15"/>
	<rect x="1026.249" y="527.335" fill="#FFFFFF" width="18.25" height="12.666"/>
	<rect x="987.249" y="516.251" fill="#FFFFFF" width="18.75" height="13.75"/>
</g>
<g id="Layer_4">
	<polyline fill="none" stroke="#FFFFFF" stroke-width="4" stroke-miterlimit="10" points="857.529,512.324 830.029,465.074 
		800.779,512.324 	"/>
	
		<line fill="none" stroke="#FFFFFF" stroke-width="4" stroke-miterlimit="10" x1="861.249" y1="461.501" x2="865.999" y2="505.751"/>
	<line fill="none" stroke="#FFFFFF" stroke-width="12" stroke-miterlimit="10" x1="4.583" y1="5.334" x2="785.249" y2="593.333"/>
	<polygon fill="none" stroke="#FFFFFF" stroke-width="4" stroke-miterlimit="10" points="660.249,608.251 737.638,569.891 
		691.999,579.251 	"/>
	
		<line fill="none" stroke="#FFFFFF" stroke-width="4" stroke-miterlimit="10" x1="662.249" y1="728.501" x2="767.749" y2="584.251"/>
	<polyline fill="none" stroke="#FFFFFF" stroke-width="4" stroke-miterlimit="10" points="805.999,670.501 805.999,611.001 
		842.249,668.501 876.999,611.001 876.999,668.001 900.249,652.001 872.499,602.751 	"/>
	
		<line fill="none" stroke="#FFFFFF" stroke-width="4" stroke-miterlimit="10" x1="783.249" y1="552.335" x2="792.582" y2="586.441"/>
	<polyline fill="none" stroke="#FFFFFF" stroke-width="4" stroke-miterlimit="10" points="859.249,578.001 867.582,546.668 
		878.249,580.001 926.748,541.001 900.249,584.251 977.249,542.001 	"/>
	
		<line fill="none" stroke="#FFFFFF" stroke-width="12" stroke-miterlimit="10" x1="918.249" y1="538.001" x2="1083.582" y2="538.001"/>
	<polygon fill="none" stroke="#FFFFFF" stroke-width="4" stroke-miterlimit="10" points="984.749,540.001 995.499,565.751 
		1004.749,564.751 1004.749,525.501 991.749,525.501 	"/>
	<polyline fill="none" stroke="#FFFFFF" stroke-width="4" stroke-miterlimit="10" points="592.249,633.335 592.249,578.335 
		669.582,578.335 787.915,595.668 	"/>
	
		<line fill="none" stroke="#FFFFFF" stroke-width="4" stroke-miterlimit="10" x1="842.915" y1="542.001" x2="842.915" y2="576.001"/>
</g>
</svg>
